<svg width="21" height="21" viewBox="0 0 21 21" fill="none" xmlns="http://www.w3.org/2000/svg">
    <path d="M19.8437 9.98222C19.8437 8.81567 19.6227 7.70309 19.2374 6.67111C19.1354 10.0679 15.683 12.6978 13.6559 14.4381H18.7296C19.4389 13.1094 19.8437 11.5933 19.8437 9.98222ZM16.1758 2.50272C14.5694 1.2521 12.5552 0.5 10.3615 0.5C5.12446 0.5 0.878906 4.74556 0.878906 9.98222C0.878906 15.2188 5.12446 19.4642 10.3615 19.4642C12.7596 19.4642 14.9432 18.567 16.6131 17.0986H9.74804L9.72706 15.0826C13.8636 11.4867 16.3993 9.05482 16.3993 6.7058C16.3993 5.83284 16.0668 4.73124 14.5704 4.73124C13.3854 4.73124 12.2422 5.41764 12.45 8.28567H10.0392C9.4362 4.96024 11.2446 2.32025 14.6947 2.32025C15.2296 2.32025 15.7243 2.38407 16.1758 2.50272Z" fill="white"/>
</svg>
