<svg width="29" height="28" viewBox="0 0 29 28" fill="none" xmlns="http://www.w3.org/2000/svg">
    <rect x="0.59375" y="0.0625" width="27.8438" height="27.8438" rx="5.0625" fill="#03989E" fill-opacity="0.1"/>
    <path d="M14.5156 20.3125C11.0207 20.3125 8.1875 17.4793 8.1875 13.9844C8.1875 10.4894 11.0207 7.65625 14.5156 7.65625C17.3491 7.65625 19.7209 9.51855 20.5273 12.0859H18.9453" stroke="#03989E" stroke-width="0.949219" stroke-linecap="round" stroke-linejoin="round"/>
    <path d="M14.5156 11.4531V13.9844L15.7812 15.25" stroke="#03989E" stroke-width="0.949219" stroke-linecap="round" stroke-linejoin="round"/>
    <path d="M20.8153 14.6172C20.8341 14.4089 20.8438 14.1978 20.8438 13.9844M16.4141 20.3125C16.6302 20.2414 16.8414 20.1583 17.0469 20.0643M20.0784 17.1484C20.2005 16.9133 20.3093 16.6696 20.4039 16.4183M18.4343 19.1919C18.6523 19.0115 18.8587 18.8164 19.0521 18.608" stroke="#03989E" stroke-width="0.949219" stroke-linecap="round" stroke-linejoin="round"/>
</svg>
