<svg width="21" height="21" viewBox="0 0 21 21" fill="none" xmlns="http://www.w3.org/2000/svg">
    <path d="M20.5312 6.41496C20.5205 5.61519 20.3706 4.82338 20.088 4.07493C19.843 3.44362 19.4687 2.87028 18.9892 2.39153C18.5097 1.91279 17.9354 1.53917 17.303 1.29456C16.563 1.01721 15.7811 0.867248 14.9908 0.851048C13.9733 0.805641 13.6507 0.792969 11.0677 0.792969C8.4847 0.792969 8.15362 0.792969 7.14349 0.851048C6.35354 0.867367 5.57207 1.01733 4.83235 1.29456C4.19989 1.539 3.6255 1.91256 3.14594 2.39132C2.66638 2.87009 2.29219 3.44352 2.04735 4.07493C1.76898 4.81319 1.61909 5.59353 1.60416 6.38223C1.55867 7.39913 1.54492 7.7212 1.54492 10.2999C1.54492 12.8786 1.54492 13.208 1.60416 14.2175C1.62002 15.0074 1.76916 15.7868 2.04735 16.527C2.29261 17.1582 2.66706 17.7313 3.14678 18.2099C3.62651 18.6885 4.20096 19.0619 4.8334 19.3063C5.57111 19.5948 6.3527 19.7554 7.14455 19.7814C8.16315 19.8269 8.48576 19.8406 11.0687 19.8406C13.6517 19.8406 13.9828 19.8406 14.9929 19.7814C15.7832 19.7659 16.5651 19.6163 17.3051 19.339C17.9373 19.0941 18.5115 18.7204 18.991 18.2417C19.4705 17.763 19.8448 17.1898 20.0901 16.5587C20.3683 15.8194 20.5175 15.0401 20.5333 14.2492C20.5788 13.2333 20.5925 12.9113 20.5925 10.3315C20.5904 7.75288 20.5904 7.42553 20.5312 6.41496ZM11.0614 15.1764C8.35988 15.1764 6.17143 12.9915 6.17143 10.2946C6.17143 7.59765 8.35988 5.41285 11.0614 5.41285C12.3582 5.41285 13.6019 5.92717 14.519 6.84268C15.436 7.75819 15.9512 8.99989 15.9512 10.2946C15.9512 11.5893 15.436 12.831 14.519 13.7466C13.6019 14.662 12.3582 15.1764 11.0614 15.1764ZM16.1458 6.37061C15.996 6.37075 15.8477 6.3414 15.7094 6.28425C15.5709 6.22709 15.4452 6.14325 15.3393 6.03751C15.2334 5.93178 15.1494 5.80624 15.0921 5.66807C15.0349 5.52989 15.0055 5.3818 15.0057 5.23228C15.0057 5.08286 15.0351 4.9349 15.0923 4.79686C15.1497 4.65881 15.2336 4.53338 15.3395 4.42772C15.4453 4.32207 15.5709 4.23826 15.7092 4.18108C15.8475 4.1239 15.9957 4.09447 16.1453 4.09447C16.295 4.09447 16.4432 4.1239 16.5815 4.18108C16.7197 4.23826 16.8454 4.32207 16.9512 4.42772C17.0571 4.53338 17.141 4.65881 17.1982 4.79686C17.2556 4.9349 17.285 5.08286 17.285 5.23228C17.285 5.86164 16.7752 6.37061 16.1458 6.37061Z" fill="white"/>
    <path d="M11.0611 13.4671C12.8154 13.4671 14.2375 12.0474 14.2375 10.2961C14.2375 8.54473 12.8154 7.125 11.0611 7.125C9.30687 7.125 7.88477 8.54473 7.88477 10.2961C7.88477 12.0474 9.30687 13.4671 11.0611 13.4671Z" fill="white"/>
</svg>
