<svg width="20" height="21" viewBox="0 0 20 21" fill="none" xmlns="http://www.w3.org/2000/svg">
    <path d="M10.0006 0.898438C8.18587 0.898438 6.44548 1.60627 5.16229 2.86622C3.87909 4.12616 3.1582 5.83503 3.1582 7.61686C3.1582 12.8748 8.38202 19.2019 9.75092 20.7562C9.82439 20.839 9.92823 20.8897 10.0397 20.8974C10.1512 20.9051 10.2613 20.8691 10.3458 20.7973L10.3876 20.7562C11.7382 19.1958 16.8424 12.8748 16.8424 7.61635C16.8423 5.83469 16.1214 4.12604 14.8383 2.86622C13.5553 1.6064 11.8151 0.898573 10.0006 0.898438ZM10.0006 9.43993C9.54162 9.43993 9.09298 9.3063 8.71138 9.05594C8.32978 8.80558 8.03235 8.44973 7.85672 8.03341C7.68109 7.61707 7.63514 7.15895 7.72468 6.71697C7.81421 6.275 8.03521 5.86902 8.35974 5.55037C8.68427 5.23172 9.09774 5.01472 9.54787 4.92681C9.99799 4.8389 10.4646 4.88402 10.8886 5.05647C11.3126 5.22892 11.675 5.52095 11.93 5.89564C12.185 6.27033 12.3211 6.71085 12.3211 7.16148V7.16712C12.3195 7.77043 12.0744 8.34851 11.6394 8.77458C11.2044 9.20066 10.615 9.43993 10.0006 9.43993Z" fill="#F2F2F2"/>
</svg>
