<svg width="29" height="28" viewBox="0 0 29 28" fill="none" xmlns="http://www.w3.org/2000/svg">
    <rect x="0.734375" y="0.0625" width="27.8438" height="27.8438" rx="5.0625" fill="#03989E" fill-opacity="0.1"/>
    <path d="M9.45302 13.9479C8.85311 12.9018 8.56344 12.0476 8.38877 11.1818C8.13045 9.9012 8.72161 8.65028 9.70094 7.85209C10.1148 7.51474 10.5893 7.63 10.8341 8.0691L11.3866 9.06041C11.8246 9.84614 12.0436 10.239 12.0001 10.6555C11.9567 11.072 11.6614 11.4113 11.0707 12.0897L9.45302 13.9479ZM9.45302 13.9479C10.6673 16.0653 12.5729 17.9719 14.6927 19.1876M14.6927 19.1876C15.7388 19.7875 16.593 20.0772 17.4588 20.2519C18.7394 20.5102 19.9904 19.919 20.7885 18.9397C21.1259 18.5258 21.0106 18.0513 20.5715 17.8066L19.5802 17.254C18.7945 16.816 18.4016 16.5971 17.9851 16.6405C17.5686 16.6839 17.2293 16.9792 16.5509 17.5699L14.6927 19.1876Z" stroke="#03989E" stroke-width="0.949219" stroke-linejoin="round"/>
</svg>
