<svg width="21" height="21" viewBox="0 0 21 21" fill="none" xmlns="http://www.w3.org/2000/svg">
    <path d="M18.7165 0.898438H3.00223C2.43391 0.898438 1.88886 1.1242 1.487 1.52607C1.08514 1.92793 0.859375 2.47298 0.859375 3.0413V18.7555C0.859375 19.3239 1.08514 19.8689 1.487 20.2708C1.88886 20.6726 2.43391 20.8984 3.00223 20.8984H18.7165C19.2849 20.8984 19.8299 20.6726 20.2318 20.2708C20.6336 19.8689 20.8594 19.3239 20.8594 18.7555V3.0413C20.8594 2.47298 20.6336 1.92793 20.2318 1.52607C19.8299 1.1242 19.2849 0.898438 18.7165 0.898438ZM17.9848 14.6203L17.3152 17.5221C17.2812 17.6696 17.1982 17.8012 17.0797 17.8955C16.9613 17.9898 16.8144 18.0412 16.663 18.0413C9.52009 18.0413 3.71652 12.2506 3.71652 5.09487C3.72184 4.94489 3.77514 4.80058 3.8686 4.68317C3.96206 4.56576 4.09074 4.48145 4.23571 4.44264L7.13751 3.77299C7.187 3.76253 7.23736 3.7567 7.28794 3.75558C7.41744 3.76212 7.54282 3.8032 7.65108 3.87456C7.75934 3.94592 7.84652 4.04495 7.90357 4.16139L9.24286 7.28639C9.27565 7.37064 9.29393 7.45986 9.29688 7.55023C9.28598 7.74846 9.19783 7.93453 9.05134 8.06853L7.35983 9.45246C8.38474 11.6247 10.1331 13.373 12.3054 14.398L13.6893 12.7064C13.8233 12.5599 14.0094 12.4718 14.2076 12.4609C14.298 12.4638 14.3872 12.4821 14.4715 12.5149L17.5965 13.8542C17.7129 13.9112 17.812 13.9983 17.8834 14.1066C17.9548 14.2149 17.9958 14.3403 18.0023 14.4698C18.0014 14.5204 17.9955 14.5708 17.9848 14.6203Z" fill="#F2F2F2"/>
</svg>
