<svg width="29" height="28" viewBox="0 0 29 28" fill="none" xmlns="http://www.w3.org/2000/svg">
    <rect x="0.78125" y="0.132812" width="27.8438" height="27.8438" rx="5.0625" fill="#03989E" fill-opacity="0.1"/>
    <path d="M12.8047 10.2578C13.1211 10.5742 13.756 10.5187 14.7031 9.73658M14.7031 9.73658C14.563 9.6209 14.4175 9.48946 14.2671 9.34044C12.808 7.89464 10.8209 8.17771 9.88995 9.34044C9.24692 10.1435 7.6014 12.1427 11.629 19.2688C11.7958 19.5638 12.128 19.75 12.4858 19.75C13.0565 19.75 13.5027 19.2944 13.5212 18.7627C13.5606 17.6351 13.779 16.335 14.7031 16.335C15.6272 16.335 15.8457 17.6351 15.885 18.7627C15.9036 19.2944 16.3497 19.75 16.9205 19.75C17.2783 19.75 17.6105 19.5638 17.7772 19.2688C21.8049 12.1427 20.1594 10.1435 19.5163 9.34044C18.5853 8.17771 16.5982 7.89464 15.1391 9.34044C14.9888 9.48946 14.8432 9.6209 14.7031 9.73658Z" stroke="#03989E" stroke-width="0.632812" stroke-linecap="round" stroke-linejoin="round"/>
</svg>
